<svg xmlns="http://www.w3.org/2000/svg" width="346.693" height="96.11" viewBox="0 0 346.693 96.11">
  <title>Asset 2</title>
  <path d="M136.481,61.015,126.036,94.993H105.672l-11.8-37.5L81.83,94.993H61.59L46.043,43.833H31.788V68.792c0,4.843,2.111,6.83,6.582,6.83a19.346,19.346,0,0,0,9.437-2.36v18.5a33.769,33.769,0,0,1-16.764,4.1c-14.155,0-22.723-6.085-22.723-22.6V43.833H0V24.711H8.32V7.078H31.788V24.711H63.453l9.561,36.631L84.19,24.462h19.5l11.424,37,9.81-36.755h22.723l-4.3,14c6.79-9.257,18.1-15.365,31.622-15.365,22.1,0,38.245,16.266,38.245,36.134v.248c0,19.868-16.267,36.383-38.494,36.383C153,96.11,137.033,80.408,136.481,61.015Zm38.48,15.228c9.313,0,15.273-7.451,15.273-16.267v-.249c0-8.94-6.457-16.515-15.522-16.515-9.437,0-15.273,7.451-15.273,16.267v.248C159.439,68.668,165.9,76.243,174.961,76.243ZM237.42,18.626A7.714,7.714,0,0,1,229.6,10.8a8.824,8.824,0,0,1,8.692-8.816,7.714,7.714,0,0,1,7.823,7.823A8.826,8.826,0,0,1,237.42,18.626Zm1.426,67.332c-5.716,7.242-10.333,9.78-15.458,9.78-4.718,0-7.7-3.353-7.7-8.444,0-2.856.621-5.96,1.739-10.679l9.561-38.494-9.437-3.849.745-2.608,19.5-4.222h3.1l-12.914,52.65a29.843,29.843,0,0,0-1.118,5.464c0,1.241.621,1.862,1.738,1.862,2.155,0,5.346-2.071,10.14-7.633a8.994,8.994,0,0,1,5.01-5.281h.993c3.353,8.941,8.816,15.522,16.267,15.522,6.333,0,9.685-3.353,9.685-9.189,0-9.686-22.475-20.489-22.475-34.644,0-10.431,9.189-18.751,21.358-18.751,9.561,0,15.521,4.595,15.521,11.052,0,2.98-2.856,5.215-5.339,6.457h-1.242c-3.477-7.078-7.7-11.3-13.783-11.3-5.712,0-8.568,2.98-8.568,8.071,0,8.692,23.1,20.613,23.1,34.024,0,12.417-10.8,19.992-22.1,19.992C247.566,95.738,240.774,91.619,238.846,85.958Zm64.758-41.5-4.222,13.908h.87c7.078-12.294,22.227-30.92,34.272-30.92,6.332,0,8.443,3.353,8.443,8.817a27.486,27.486,0,0,1-.745,5.463L332.04,80.092a29.818,29.818,0,0,0-1.117,5.464c0,1.241.62,1.862,1.738,1.862,2.359,0,5.96-2.483,11.548-9.313l2.484,2.608c-7.575,11.3-13.039,15.025-19.247,15.025-4.719,0-7.7-3.353-7.7-8.444a41.5,41.5,0,0,1,1.738-10.679L330.8,42.1a20.5,20.5,0,0,0,.621-4.1c0-1.738-.621-2.608-2.235-2.608-7.7,0-26.946,18.626-32.782,41.847L292.056,94.5h-11.3l19-82.948L290.566,7.7l.621-2.484L311.055,0h2.856Z" fill="#fff"/>
</svg>
