<svg xmlns="http://www.w3.org/2000/svg" width="16.32" height="24.004" viewBox="0 0 16.32 24.004">
  <title>Icons Meetup</title>
  <path d="M14.368,24a.994.994,0,0,1-.99-.927l-.42-6.3a.479.479,0,0,0-.956,0l-.42,6.307A.992.992,0,0,1,9.6,23.009V17.28a.962.962,0,0,1-.96-.96v-4.8h3.84a2.883,2.883,0,0,0,2.88-2.88,1.041,1.041,0,0,0-.012-.137c0-.032-.008-.062-.01-.094a2.874,2.874,0,0,1,.982,2.15v5.76a.96.96,0,0,1-.959.96v5.729A.993.993,0,0,1,14.368,24ZM5.677,24a1,1,0,0,1-.99-.927l-.419-6.3a.479.479,0,0,0-.957,0l-.419,6.307A1,1,0,0,1,1.9,24a.97.97,0,0,1-.992-.863V17.291A.958.958,0,0,1,0,16.32V10.56A2.883,2.883,0,0,1,2.88,7.68h9.613a.961.961,0,1,1,0,1.921H6.67V23.009A.992.992,0,0,1,5.677,24Zm6.8-18.24a2.88,2.88,0,1,1,2.88-2.88,2.88,2.88,0,0,1-2.88,2.88Zm-8.64,0A2.88,2.88,0,1,1,6.72,2.88,2.88,2.88,0,0,1,3.837,5.76Z" fill="#fff"/>
</svg>
