<svg xmlns="http://www.w3.org/2000/svg" width="22.628" height="22.628" viewBox="0 0 22.628 22.628">
  <title>Icons Blocked People</title>
  <path d="M0,1.414,1.414,0l5.18,5.179a5,5,0,0,1,9.841,1.256,8.12,8.12,0,0,1-2.776,5.809h0l8.969,8.969-1.415,1.415Zm13.658,10.83h0L9.18,7.765ZM2.5,21.429a1.175,1.175,0,0,1-.589-.182,1.01,1.01,0,0,1-.378-1.333l.034-.1A4.84,4.84,0,0,1,1.918,19a11.769,11.769,0,0,1,1.607-2.359,10.184,10.184,0,0,1,4.2-2.912l7.707,7.707H2.676C2.6,21.434,2.561,21.434,2.5,21.429Z" fill="#fff"/>
</svg>
