<svg xmlns="http://www.w3.org/2000/svg" width="16.403" height="20.003" viewBox="0 0 16.403 20.003">
  <title>Icons Activities Wellness</title>
  <path d="M15.412,20A.411.411,0,0,1,15,19.581V8.477L13.52,9.79a.835.835,0,0,1-.553.21,16.962,16.962,0,0,1-2.535-.753l.4-2.217c0-.023.006-.044.008-.067a.249.249,0,0,1,.006-.057l2,1.249L15,6.25V5.418a.423.423,0,0,1,.117-.3.418.418,0,0,1,.292-.126h.006a.415.415,0,0,1,.417.413v.672a.8.8,0,0,1,.362.222.835.835,0,0,1-.07,1.176l-.292.259V19.581a.415.415,0,0,1-.206.365A.423.423,0,0,1,15.412,20ZM10,20a.83.83,0,0,1-.824-.7L9.1,18.9l-.925-3.49L4.927,12.86l-.006-.02a2.06,2.06,0,0,1-.713-2.008v-.009l.824-4.108a2.082,2.082,0,0,1,4.131.368,2.162,2.162,0,0,1-.057.467l-.817,4.1v.024l1.558,2.852a.859.859,0,0,1,.134.314L10.813,19a.833.833,0,0,1-.649.983A.852.852,0,0,1,10,20ZM2.5,20a.834.834,0,0,1-.833-.833A.852.852,0,0,1,1.75,18.8l.007-.013a.467.467,0,0,1,.027-.049l.06-.105L3.7,15.35l.428-1.414L5.96,15.425,3.19,19.633l-.015.021A.841.841,0,0,1,2.5,20Zm-.417-8.331A2.06,2.06,0,0,1,.065,9.092l.823-3.3A2.069,2.069,0,0,1,2.916,4.168a2.01,2.01,0,0,1,.921.23L2.574,10.5a3.861,3.861,0,0,0-.075.743,2.024,2.024,0,0,0,.021.246v.041a.6.6,0,0,0,.009.078A2.031,2.031,0,0,1,2.083,11.666Zm6.664-7.5A2.083,2.083,0,1,1,10.83,2.083v0A2.085,2.085,0,0,1,8.747,4.168Z" fill="#fff"/>
</svg>
