<svg xmlns="http://www.w3.org/2000/svg" width="22" height="14.77" viewBox="0 0 22 14.77">
  <title>Icons Club</title>
  <path d="M9.611,14.77H5.744V13.129a4.923,4.923,0,0,1,4.922-4.924h.3a4.923,4.923,0,0,1,4.924,4.922V14.77ZM0,14.766v-.407A4.512,4.512,0,0,1,4.512,9.847h0c.159,0,.317.008.472.023A6.515,6.515,0,0,0,4.1,13.129v1.637ZM17.9,14.6V12.965a6.5,6.5,0,0,0-.882-3.258c.156-.015.312-.024.472-.024A4.512,4.512,0,0,1,22,14.2v.4ZM1.641,5.333a2.856,2.856,0,0,1,4.13-2.571,5,5,0,0,0-.027.519A4.9,4.9,0,0,0,7.066,6.624,2.864,2.864,0,0,1,1.641,5.333ZM14.934,6.459a4.9,4.9,0,0,0,1.3-3.86,2.87,2.87,0,1,1-1.3,3.862ZM7.385,3.282a3.282,3.282,0,1,1,3.282,3.282h0A3.284,3.284,0,0,1,7.385,3.282Z" fill="#fff"/>
</svg>
