<?xml version="1.0" encoding="UTF-8"?>
<svg width="1000px" height="278px" viewBox="0 0 1000 278" version="1.1" xmlns="http://www.w3.org/2000/svg" xmlns:xlink="http://www.w3.org/1999/xlink">
    <!-- Generator: Sketch 51.2 (57519) - http://www.bohemiancoding.com/sketch -->
    <title>twoish_purple</title>
    <desc>Created with Sketch.</desc>
    <defs></defs>
    <g id="Page-1" stroke="none" stroke-width="1" fill="none" fill-rule="evenodd">
        <g id="Artboard" transform="translate(-1155.000000, -1407.000000)" fill="#5458F7">
            <path d="M1548.66725,1582.99271 L1518.53868,1680.99713 L1459.79943,1680.99713 L1425.77364,1572.83095 L1391.03152,1680.99713 L1332.65043,1680.99713 L1287.80752,1533.43266 L1246.69054,1533.43266 L1246.69054,1605.42407 C1246.69054,1619.39255 1252.77937,1625.12321 1265.67335,1625.12321 C1275.34384,1625.12321 1284.29799,1622.97421 1292.89398,1618.31805 L1292.89398,1671.68481 C1280.35817,1678.84814 1263.88252,1683.5043 1244.54155,1683.5043 C1203.7106,1683.5043 1178.99713,1665.95415 1178.99713,1618.31805 L1178.99713,1533.43266 L1155,1533.43266 L1155,1478.27507 L1178.99713,1478.27507 L1178.99713,1427.41547 L1246.69054,1427.41547 L1246.69054,1478.27507 L1293.61032,1478.27507 L1338.02292,1478.27507 L1365.60172,1583.9341 L1397.83668,1477.55874 L1454.06877,1477.55874 L1487.02006,1584.29226 L1515.31519,1478.27507 L1580.8596,1478.27507 L1568.44635,1518.65381 C1588.03238,1491.95493 1620.66478,1474.33524 1659.65616,1474.33524 C1723.40974,1474.33524 1769.97135,1521.25501 1769.97135,1578.5616 L1769.97135,1579.27794 C1769.97135,1636.58453 1723.05158,1684.22063 1658.93983,1684.22063 C1596.30178,1684.22063 1550.25933,1638.92846 1548.66725,1582.99271 Z M1659.65616,1626.91404 C1686.51862,1626.91404 1703.7106,1605.42407 1703.7106,1579.99427 L1703.7106,1579.27794 C1703.7106,1553.48997 1685.08596,1531.64183 1658.93983,1531.64183 C1631.7192,1531.64183 1614.88539,1553.13181 1614.88539,1578.5616 L1614.88539,1579.27794 C1614.88539,1605.0659 1633.51003,1626.91404 1659.65616,1626.91404 Z M1839.81375,1460.72493 C1826.91977,1460.72493 1817.24928,1450.69628 1817.24928,1438.16046 C1817.24928,1424.19198 1828.7106,1412.73066 1842.32092,1412.73066 C1855.2149,1412.73066 1864.88539,1422.75931 1864.88539,1435.29513 C1864.88539,1449.26361 1853.42407,1460.72493 1839.81375,1460.72493 Z M1843.92863,1654.93754 C1827.44152,1675.82486 1814.12337,1683.14613 1799.34097,1683.14613 C1785.73066,1683.14613 1777.13467,1673.47564 1777.13467,1658.79083 C1777.13467,1650.55301 1778.9255,1641.59885 1782.149,1627.98854 L1809.72779,1516.95702 L1782.50716,1505.85387 L1784.65616,1498.33238 L1840.88825,1486.15473 L1849.84241,1486.15473 L1812.59312,1638.01719 C1810.80229,1644.82235 1809.36963,1650.91117 1809.36963,1653.7765 C1809.36963,1657.35817 1811.16046,1659.149 1814.38395,1659.149 C1820.59915,1659.149 1829.80191,1653.17386 1843.62938,1637.13075 C1845.90948,1630.42363 1851.04782,1625.02523 1858.08023,1621.89971 L1860.94556,1621.89971 C1870.61605,1647.68768 1886.37536,1666.67049 1907.86533,1666.67049 C1926.13181,1666.67049 1935.80229,1657 1935.80229,1640.16619 C1935.80229,1612.22923 1870.97421,1581.06877 1870.97421,1540.23782 C1870.97421,1510.15186 1897.47851,1486.15473 1932.5788,1486.15473 C1960.15759,1486.15473 1977.34957,1499.40688 1977.34957,1518.03152 C1977.34957,1526.62751 1969.11175,1533.0745 1961.94842,1536.65616 L1958.36676,1536.65616 C1948.33811,1516.24069 1936.16046,1504.06304 1918.61032,1504.06304 C1902.13467,1504.06304 1893.89685,1512.65903 1893.89685,1527.34384 C1893.89685,1552.41547 1960.51576,1586.79943 1960.51576,1625.48138 C1960.51576,1661.29799 1929.3553,1683.14613 1896.76218,1683.14613 C1869.08038,1683.14613 1849.48727,1671.26586 1843.92863,1654.93754 Z M2030.71633,1535.2235 L2018.53868,1575.33811 L2021.04585,1575.33811 C2041.46132,1539.87966 2085.15759,1486.15473 2119.89971,1486.15473 C2138.16619,1486.15473 2144.25501,1495.82521 2144.25501,1511.58453 C2144.25501,1516.24069 2143.18052,1522.68768 2142.10602,1527.34384 L2112.73639,1638.01719 C2110.94556,1644.82235 2109.51289,1650.91117 2109.51289,1653.7765 C2109.51289,1657.35817 2111.30372,1659.149 2114.52722,1659.149 C2121.33238,1659.149 2131.7192,1651.98567 2147.83668,1632.28653 L2155,1639.80802 C2133.15186,1672.40115 2117.39255,1683.14613 2099.48424,1683.14613 C2085.87393,1683.14613 2077.27794,1673.47564 2077.27794,1658.79083 C2077.27794,1650.55301 2078.7106,1641.59885 2082.29226,1627.98854 L2109.15473,1528.41834 C2110.22923,1523.76218 2110.94556,1519.46418 2110.94556,1516.59885 C2110.94556,1511.58453 2109.15473,1509.07736 2104.49857,1509.07736 C2082.29226,1509.07736 2026.7765,1562.80229 2009.94269,1629.77937 L1997.40688,1679.56447 L1964.81375,1679.56447 L2019.61318,1440.30946 L1993.10888,1429.2063 L1994.89971,1422.04298 L2052.2063,1407 L2060.44413,1407 L2030.71633,1535.2235 Z" id="twoish_purple"></path>
        </g>
    </g>
</svg>